<svg width="100" height="22" viewBox="0 0 100 22" fill="none" xmlns="http://www.w3.org/2000/svg">
<g clip-path="url(#clip0_1253_1756)">
<path d="M37.993 19.5429C36.5614 19.5429 35.3503 19.297 34.3549 18.8074C33.3596 18.3179 32.5127 17.6821 31.812 16.9049C32.9628 15.7401 34.6937 15.4246 36.2157 16.0278C36.8352 16.2738 37.5057 16.3944 38.225 16.3944C39.0951 16.3944 39.7401 16.2181 40.16 15.8631C40.58 15.5081 40.7888 15.0394 40.7888 14.4524C40.7888 14.0046 40.6635 13.6311 40.4153 13.3318C40.167 13.0325 39.6612 12.826 38.9002 12.7192L37.29 12.5104C35.5638 12.2923 34.3016 11.7703 33.5011 10.9466C32.7006 10.1206 32.2993 9.02551 32.2993 7.65428C32.2993 6.92342 32.4385 6.25289 32.7192 5.645C32.9999 5.03711 33.399 4.51739 33.9211 4.08119C34.4408 3.645 35.0788 3.30625 35.8329 3.06495C36.587 2.82365 37.4454 2.703 38.4106 2.703C39.638 2.703 40.7192 2.8979 41.6519 3.28769C42.5846 3.67748 43.3851 4.24593 44.0533 4.99303L41.6983 7.37586C41.3085 6.93038 40.8399 6.56379 40.2876 6.27841C39.7354 5.99303 39.0394 5.85149 38.1995 5.85149C37.406 5.85149 36.8167 5.99071 36.4269 6.26681C36.0371 6.54291 35.8445 6.92806 35.8445 7.41994C35.8445 7.97446 35.9953 8.37354 36.2992 8.61948C36.6032 8.86542 37.0951 9.04175 37.7795 9.1508L39.3897 9.40834C41.0696 9.67284 42.3132 10.1902 43.1206 10.9605C43.928 11.7308 44.3341 12.8237 44.3341 14.2413C44.3341 15.0185 44.1948 15.7355 43.9141 16.3898C43.6334 17.0441 43.225 17.6032 42.689 18.0696C42.1531 18.5359 41.4872 18.8979 40.696 19.1554C39.9025 19.413 39.0023 19.5406 37.9907 19.5406L37.993 19.5429Z" fill="#35CED8"/>
<path d="M47.1113 19.7123V2.98376H54.8074C55.5684 2.98376 56.2529 3.11138 56.8584 3.36892C57.464 3.62646 57.9814 3.97912 58.4083 4.42924C58.8352 4.87936 59.167 5.42924 59.399 6.07425C59.6311 6.71926 59.7494 7.42228 59.7494 8.18562C59.7494 8.94896 59.6334 9.67054 59.399 10.3086C59.167 10.9466 58.8352 11.4896 58.4083 11.942C57.9814 12.3921 57.464 12.7471 56.8584 13.0023C56.2529 13.2599 55.5684 13.3875 54.8074 13.3875H50.6566V16.1694C50.6566 18.1276 49.0696 19.7146 47.1113 19.7146V19.7123ZM50.6566 10.3063H54.3874C54.9164 10.3063 55.3317 10.1694 55.6357 9.89792C55.9396 9.62646 56.0904 9.22506 56.0904 8.69606V7.67054C56.0904 7.14154 55.9396 6.74246 55.6357 6.46868C55.3317 6.19722 54.9164 6.06033 54.3874 6.06033H50.6566V10.3039V10.3063Z" fill="#35CED8"/>
<path d="M62.2458 19.7123V2.98376H69.9651C70.7122 2.98376 71.3874 3.10905 71.993 3.35731C72.5985 3.60557 73.1159 3.96056 73.5428 4.41764C73.9697 4.87704 74.3015 5.4246 74.5336 6.06265C74.7656 6.7007 74.8839 7.40836 74.8839 8.18562C74.8839 9.29003 74.638 10.2529 74.1484 11.0766C73.6588 11.9002 72.9164 12.4988 71.921 12.8724L75.1159 19.2622H71.1739L68.3294 13.2923H65.7865V16.1671C65.7865 18.1253 64.1994 19.7123 62.2412 19.7123H62.2458ZM69.522 10.3063C70.051 10.3063 70.4663 10.1694 70.7702 9.89792C71.0742 9.62646 71.225 9.22506 71.225 8.69606V7.67054C71.225 7.14154 71.0742 6.74246 70.7702 6.46868C70.4663 6.19722 70.051 6.06033 69.522 6.06033H65.7911V10.3039H69.522V10.3063Z" fill="#35CED8"/>
<path d="M77.1693 19.2622V16.4408H79.7262V5.80743H77.1693V2.98608H85.8259V5.80743H83.2691V16.4408H86.6055C86.6055 18 85.109 19.2622 83.5521 19.2622H77.167H77.1693Z" fill="#35CED8"/>
<path d="M95.3157 6.13458V16.1694C95.3157 18.1276 93.7287 19.7146 91.7704 19.7146V6.13458H87.3621V2.98608H99.9537C99.9537 4.7239 98.5454 6.13458 96.8052 6.13458H95.3133H95.3157Z" fill="#35CED8"/>
<path d="M17.7634 21.5197C17.0372 21.5197 16.3087 21.2413 15.7541 20.6868L1.13232 6.06495C0.023275 4.9559 0.023275 3.15544 1.13232 2.04639C2.24137 0.937337 4.04183 0.937337 5.15088 2.04639L19.7727 16.6682C20.8817 17.7772 20.8817 19.5777 19.7727 20.6868C19.2182 21.2413 18.4896 21.5197 17.7634 21.5197Z" fill="#35CED8"/>
<path d="M18.9583 9.42691C18.246 9.42691 17.5337 9.15545 16.9884 8.61253L13.2065 4.83062C12.1183 3.74246 12.1183 1.98144 13.2065 0.893274C14.2947 -0.194893 16.0557 -0.194893 17.1439 0.893274L20.9258 4.67517C22.014 5.76334 22.014 7.52436 20.9258 8.61253C20.3829 9.15545 19.6706 9.42691 18.9559 9.42691H18.9583Z" fill="#35CED8"/>
<path d="M3.37351 21.7077C5.17516 21.7077 6.63569 20.2472 6.63569 18.4455C6.63569 16.6439 5.17516 15.1833 3.37351 15.1833C1.57185 15.1833 0.111328 16.6439 0.111328 18.4455C0.111328 20.2472 1.57185 21.7077 3.37351 21.7077Z" fill="#35CED8"/>
</g>
<defs>
<clipPath id="clip0_1253_1756">
<rect width="100" height="21.8097" fill="white"/>
</clipPath>
</defs>
</svg>
